<svg width="444" height="420" viewBox="0 0 444 420" fill="none" xmlns="http://www.w3.org/2000/svg">
<g clip-path="url(#clip0_1789_10016)">
<path d="M95.4 360C98.28 340.64 100.36 319.76 101.64 297.36C103.08 274.96 103.8 253.04 103.8 231.6C103.8 217.2 103.32 203.12 102.36 189.36C101.56 175.44 100.44 162.4 99 150.24L159.48 141.6C161.24 154.88 162.52 169.52 163.32 185.52C164.28 201.36 164.76 217.36 164.76 233.52C164.76 254.96 164.04 276.8 162.6 299.04C161.16 321.12 159.16 341.44 156.6 360H95.4ZM135.96 241.92V191.28H311.4V241.92H135.96ZM76.68 110.4V65.52H309.96V110.4H76.68ZM347.64 110.4V65.52H380.76L377.16 110.4H347.64ZM280.68 360V65.52H365.16V110.4H339.96V360H280.68ZM61.56 110.4L65.16 65.52H95.64V110.4H61.56Z" fill="currentColor"/>
</g>
<defs>
<clipPath id="clip0_1789_10016">
<rect width="444" height="420" fill="currentColor"/>
</clipPath>
</defs>
</svg>
